# xmcd CD database file generated by LOLA_Freedb v0.9beta0
# 
# Track frame offsets:
#      150
#      25026
#      42445
#      83551
#      105343
#      125863
#      142125
#      162009
# 
# Disc length: 2468 seconds
# 
# Revision: 0 
# Processed by: cddbd v1.5.2PL0 Copyright (c) Steve Scherf et al.
# Submitted via: LOLA_Freedb v0.9beta0
# 
DISCID=6109a208
DTITLE=Dynamic Superiors - Give And Take
DYEAR=1977
DGENRE=
TTITLE0=Happy Song
TTITLE1=Give It All Up
TTITLE2=Nowhere To Run
TTITLE3=You're What I Need
TTITLE4=All In Love Is Fair
TTITLE5=All You Can Do With Love
TTITLE6=Here Comes That Feeling Again
TTITLE7=Once Is Just Not Enough
EXTD=
EXTT0=
EXTT1=
EXTT2=
EXTT3=
EXTT4=
EXTT5=
EXTT6=
EXTT7=
PLAYORDER=
